<?xml version="1.0" encoding="UTF-8" standalone="no"?>
<!-- Created with Inkscape (http://www.inkscape.org/) -->

<svg
   width="210mm"
   height="79mm"
   viewBox="0 0 210 79"
   version="1.1"
   id="svg1"
   inkscape:version="1.4.3 (0d15f75, 2025-12-25)"
   sodipodi:docname="decomp.svg"
   inkscape:export-filename="decomp.png"
   inkscape:export-xdpi="96"
   inkscape:export-ydpi="96"
   xmlns:inkscape="http://www.inkscape.org/namespaces/inkscape"
   xmlns:sodipodi="http://sodipodi.sourceforge.net/DTD/sodipodi-0.dtd"
   xmlns="http://www.w3.org/2000/svg"
   xmlns:svg="http://www.w3.org/2000/svg">
  <sodipodi:namedview
     id="namedview1"
     pagecolor="#ffffff"
     bordercolor="#000000"
     borderopacity="0.25"
     inkscape:showpageshadow="2"
     inkscape:pageopacity="0.0"
     inkscape:pagecheckerboard="0"
     inkscape:deskcolor="#d1d1d1"
     inkscape:document-units="mm"
     inkscape:zoom="1.051125"
     inkscape:cx="456.17791"
     inkscape:cy="294.92211"
     inkscape:window-width="1512"
     inkscape:window-height="839"
     inkscape:window-x="0"
     inkscape:window-y="132"
     inkscape:window-maximized="0"
     inkscape:current-layer="layer1"
     inkscape:export-bgcolor="#ffffffff" />
  <defs
     id="defs1">
    <inkscape:path-effect
       effect="spiro"
       id="path-effect3"
       is_visible="true"
       lpeversion="1" />
    <rect
       x="301.44949"
       y="185.14954"
       width="162.81995"
       height="82.805573"
       id="rect2" />
    <inkscape:path-effect
       effect="spiro"
       id="path-effect35"
       is_visible="true"
       lpeversion="1" />
    <inkscape:path-effect
       effect="spiro"
       id="path-effect38"
       is_visible="true"
       lpeversion="1" />
    <inkscape:path-effect
       effect="spiro"
       id="path-effect38-5-8"
       is_visible="true"
       lpeversion="1" />
    <inkscape:path-effect
       effect="spiro"
       id="path-effect35-9"
       is_visible="true"
       lpeversion="1" />
    <inkscape:path-effect
       effect="spiro"
       id="path-effect35-7"
       is_visible="true"
       lpeversion="1" />
    <inkscape:path-effect
       effect="spiro"
       id="path-effect38-0"
       is_visible="true"
       lpeversion="1" />
    <inkscape:path-effect
       effect="spiro"
       id="path-effect38-0-7"
       is_visible="true"
       lpeversion="1" />
    <inkscape:path-effect
       effect="spiro"
       id="path-effect3-1"
       is_visible="true"
       lpeversion="1" />
    <inkscape:path-effect
       effect="spiro"
       id="path-effect39"
       is_visible="true"
       lpeversion="1" />
  </defs>
  <g
     inkscape:label="Layer 1"
     inkscape:groupmode="layer"
     id="layer1">
    <path
       style="fill:none;stroke:#000000;stroke-width:1.93186;stroke-dasharray:none;stroke-opacity:1"
       d="M 25.965245,10.386098 V 132.83273 H 178.4769"
       id="path34"
       inkscape:path-effect="#path-effect35"
       inkscape:original-d="M 25.965245,10.386098 V 132.83273 H 178.4769"
       transform="matrix(0.32968122,0,0,0.3438638,-4.1328083,6.9092288)" />
    <path
       style="fill:none;fill-opacity:1;stroke:#c6e9af;stroke-width:1.96681;stroke-dasharray:none;stroke-opacity:1"
       d="m 61.223315,50.563899 c 1.630582,4.584653 4.260328,8.811032 7.652914,12.299327 1.262451,1.298066 2.629876,2.495712 4.099777,3.553138 1.791682,1.288911 3.73063,2.365975 5.739686,3.27982 2.88956,1.314354 5.926225,2.293271 9.019505,3.006502 5.757121,1.327444 11.691856,1.734677 17.599993,1.756333 5.98539,0.02194 12.09285,-0.373187 17.65808,-2.576287 2.97647,-1.178291 5.74854,-2.860534 8.19955,-4.919731 1.82959,-1.537117 3.4824,-3.284063 4.91973,-5.193049 1.2806,-1.700834 2.39113,-3.531682 3.27982,-5.466368 0.84347,-1.83625 1.48626,-3.764602 1.91323,-5.739686"
       id="path38"
       inkscape:path-effect="#path-effect38"
       inkscape:original-d="m 61.223315,50.563899 c 0.644311,2.163305 3.700621,9.664464 7.652914,12.299327 1.461971,0.974646 2.45028,3.003307 4.099777,3.553138 1.51406,0.504687 4.824037,2.364173 5.739686,3.27982 1.906997,1.907 7.026402,1.013399 9.019505,3.006502 0.984181,0.984182 14.913353,1.744593 17.599993,1.756333 4.98248,0.02177 14.64214,0.439653 17.65808,-2.576287 0.86165,-0.861656 6.70256,-3.422745 8.19955,-4.919731 1.76505,-1.765052 3.01329,-3.286615 4.91973,-5.193049 1.1421,-1.142097 2.05045,-4.236997 3.27982,-5.466368 1.26056,-1.260562 1.15968,-4.232585 1.91323,-5.739686"
       sodipodi:nodetypes="csssssssssc"
       transform="matrix(0.47551807,0,0,0.50645928,-17.041949,-9.9425333)" />
    <path
       style="fill:none;fill-opacity:1;stroke:#447821;stroke-width:2.05871;stroke-dasharray:none;stroke-opacity:1"
       d="m 61.223315,50.563899 c 1.630582,4.584653 4.260328,8.811032 7.652914,12.299327 1.262451,1.298066 2.629876,2.495712 4.099777,3.553138 1.791682,1.288911 3.73063,2.365975 5.739686,3.27982 2.88956,1.314354 5.926225,2.293271 9.019505,3.006502 5.757121,1.327444 11.691856,1.734677 17.599993,1.756333 5.98539,0.02194 12.09285,-0.373187 17.65808,-2.576287 2.97647,-1.178291 5.74854,-2.860534 8.19955,-4.919731 1.82959,-1.537117 3.4824,-3.284063 4.91973,-5.193049 1.2806,-1.700834 2.39113,-3.531682 3.27982,-5.466368 0.84347,-1.83625 1.48626,-3.764602 1.91323,-5.739686"
       id="path38-05-5"
       inkscape:path-effect="#path-effect38-5-8"
       inkscape:original-d="m 61.223315,50.563899 c 0.644311,2.163305 3.700621,9.664464 7.652914,12.299327 1.461971,0.974646 2.45028,3.003307 4.099777,3.553138 1.51406,0.504687 4.824037,2.364173 5.739686,3.27982 1.906997,1.907 7.026402,1.013399 9.019505,3.006502 0.984181,0.984182 14.913353,1.744593 17.599993,1.756333 4.98248,0.02177 14.64214,0.439653 17.65808,-2.576287 0.86165,-0.861656 6.70256,-3.422745 8.19955,-4.919731 1.76505,-1.765052 3.01329,-3.286615 4.91973,-5.193049 1.1421,-1.142097 2.05045,-4.236997 3.27982,-5.466368 1.26056,-1.260562 1.15968,-4.232585 1.91323,-5.739686"
       sodipodi:nodetypes="csssssssssc"
       transform="matrix(0.45430405,0,0,0.4867576,-15.203442,10.664304)" />
    <text
       xml:space="preserve"
       style="font-size:16.1736px;writing-mode:lr-tb;direction:ltr;fill:none;stroke:none;stroke-width:5.9007;stroke-dasharray:30.5296, 5.08828"
       x="70.242104"
       y="49.674122"
       id="text1"
       transform="scale(1.2932234,0.7732616)"><tspan
         sodipodi:role="line"
         id="tspan1"
         style="stroke:none;stroke-width:5.9007"
         x="70.242104"
         y="49.674122">=</tspan></text>
    <text
       xml:space="preserve"
       transform="scale(0.26458333)"
       id="text2"
       style="writing-mode:lr-tb;direction:ltr;white-space:pre;shape-inside:url(#rect2);display:inline;fill:none;stroke:#447821;stroke-width:4.378;stroke-dasharray:22.6514, 3.77524" />
    <text
       xml:space="preserve"
       style="font-size:12.0845px;writing-mode:lr-tb;direction:ltr;fill:#000000;fill-opacity:1;stroke:#000000;stroke-width:0.0154169;stroke-dasharray:none;stroke-dashoffset:0"
       x="120.36308"
       y="40.165489"
       id="text3"
       transform="scale(1.0835649,0.92287965)"><tspan
         sodipodi:role="line"
         id="tspan3"
         style="stroke-width:0.0154169;stroke-dasharray:none;stroke-dashoffset:0"
         x="120.36308"
         y="40.165489">+</tspan></text>
    <text
       xml:space="preserve"
       style="font-size:13.8661px;writing-mode:lr-tb;direction:ltr;fill:#000000;fill-opacity:1;stroke:#000000;stroke-width:0.0186658;stroke-dasharray:none;stroke-dashoffset:0"
       x="48.403519"
       y="44.486916"
       id="text3-5"
       transform="scale(1.1600087,0.86206251)"><tspan
         sodipodi:role="line"
         id="tspan3-9"
         style="fill:#000000;stroke-width:0.0186658;stroke-dasharray:none;stroke-dashoffset:0"
         x="48.403519"
         y="44.486916">=</tspan></text>
    <path
       style="fill:none;stroke:#000000;stroke-width:1.92898;stroke-dasharray:none;stroke-opacity:1"
       d="M 25.965245,10.386098 V 132.83273 H 178.4769"
       id="path34-9"
       inkscape:path-effect="#path-effect35-9"
       inkscape:original-d="M 25.965245,10.386098 V 132.83273 H 178.4769"
       transform="matrix(0.32305047,0,0,0.3623231,70.055311,4.934432)" />
    <path
       style="fill:none;stroke:#000000;stroke-width:1.89467;stroke-dasharray:none;stroke-opacity:1"
       d="M 25.965245,10.386098 V 132.83273 H 178.4769"
       id="path34-1"
       inkscape:path-effect="#path-effect35-7"
       inkscape:original-d="M 25.965245,10.386098 V 132.83273 H 178.4769"
       transform="matrix(0.37239766,0,0,0.37857475,138.09243,3.6913006)" />
    <path
       style="fill:none;fill-opacity:1;stroke:#afdde9;stroke-width:1.96681;stroke-dasharray:none;stroke-opacity:1"
       d="m 61.223315,50.563899 c 1.630582,4.584653 4.260328,8.811032 7.652914,12.299327 1.262451,1.298066 2.629876,2.495712 4.099777,3.553138 1.791682,1.288911 3.73063,2.365975 5.739686,3.27982 2.88956,1.314354 5.926225,2.293271 9.019505,3.006502 5.757121,1.327444 11.691856,1.734677 17.599993,1.756333 5.98539,0.02194 12.09285,-0.373187 17.65808,-2.576287 2.97647,-1.178291 5.74854,-2.860534 8.19955,-4.919731 1.82959,-1.537117 3.4824,-3.284063 4.91973,-5.193049 1.2806,-1.700834 2.39113,-3.531682 3.27982,-5.466368 0.84347,-1.83625 1.48626,-3.764602 1.91323,-5.739686"
       id="path38-2"
       inkscape:path-effect="#path-effect38-0"
       inkscape:original-d="m 61.223315,50.563899 c 0.644311,2.163305 3.700621,9.664464 7.652914,12.299327 1.461971,0.974646 2.45028,3.003307 4.099777,3.553138 1.51406,0.504687 4.824037,2.364173 5.739686,3.27982 1.906997,1.907 7.026402,1.013399 9.019505,3.006502 0.984181,0.984182 14.913353,1.744593 17.599993,1.756333 4.98248,0.02177 14.64214,0.439653 17.65808,-2.576287 0.86165,-0.861656 6.70256,-3.422745 8.19955,-4.919731 1.76505,-1.765052 3.01329,-3.286615 4.91973,-5.193049 1.1421,-1.142097 2.05045,-4.236997 3.27982,-5.466368 1.26056,-1.260562 1.15968,-4.232585 1.91323,-5.739686"
       sodipodi:nodetypes="csssssssssc"
       transform="matrix(0.47551807,0,0,0.50645928,56.036251,-13.65395)" />
    <path
       style="fill:none;fill-opacity:1;stroke:#3737c8;stroke-width:1.97364;stroke-dasharray:none;stroke-opacity:1"
       d="m 61.223315,50.563899 c 1.630582,4.584653 4.260328,8.811032 7.652914,12.299327 1.262451,1.298066 2.629876,2.495712 4.099777,3.553138 1.791682,1.288911 3.73063,2.365975 5.739686,3.27982 2.88956,1.314354 5.926225,2.293271 9.019505,3.006502 5.757121,1.327444 11.691856,1.734677 17.599993,1.756333 5.98539,0.02194 12.09285,-0.373187 17.65808,-2.576287 2.97647,-1.178291 5.74854,-2.860534 8.19955,-4.919731 1.82959,-1.537117 3.4824,-3.284063 4.91973,-5.193049 1.2806,-1.700834 2.39113,-3.531682 3.27982,-5.466368 0.84347,-1.83625 1.48626,-3.764602 1.91323,-5.739686"
       id="path38-2-9"
       inkscape:path-effect="#path-effect38-0-7"
       inkscape:original-d="m 61.223315,50.563899 c 0.644311,2.163305 3.700621,9.664464 7.652914,12.299327 1.461971,0.974646 2.45028,3.003307 4.099777,3.553138 1.51406,0.504687 4.824037,2.364173 5.739686,3.27982 1.906997,1.907 7.026402,1.013399 9.019505,3.006502 0.984181,0.984182 14.913353,1.744593 17.599993,1.756333 4.98248,0.02177 14.64214,0.439653 17.65808,-2.576287 0.86165,-0.861656 6.70256,-3.422745 8.19955,-4.919731 1.76505,-1.765052 3.01329,-3.286615 4.91973,-5.193049 1.1421,-1.142097 2.05045,-4.236997 3.27982,-5.466368 1.26056,-1.260562 1.15968,-4.232585 1.91323,-5.739686"
       sodipodi:nodetypes="csssssssssc"
       transform="matrix(0.48811205,0,0,0.48542552,54.74381,-10.291463)" />
    <path
       style="fill:none;fill-opacity:1;stroke:#a02c5a;stroke-width:0.960702;stroke-dasharray:none;stroke-dashoffset:0"
       d="m 150.77695,41.784596 c 9.30689,-0.427505 18.63341,-0.427506 27.9403,-10e-7 2.60391,0.119609 5.20672,0.272692 7.80315,0.503431 2.77865,0.246933 5.5494,0.582781 8.30658,1.006856"
       id="path3"
       inkscape:path-effect="#path-effect3"
       inkscape:original-d="m 150.77695,41.784596 c 1.88405,1.504744 23.54187,-1.466142 27.9403,-10e-7 1.46807,0.489357 6.21898,1.295514 7.80315,0.503431 2.1853,-1.092656 5.74103,1.006856 8.30658,1.006856"
       transform="translate(3.2722877,-5.4888288)"
       sodipodi:nodetypes="cssc" />
    <path
       style="fill:none;fill-opacity:1;stroke:#e9afc6;stroke-width:0.960702;stroke-dasharray:none;stroke-dashoffset:0"
       d="m 153.04238,41.281167 c 8.56075,-0.06593 17.12329,0.101961 25.67487,0.503428 2.60381,0.12224 5.20729,0.266179 7.80315,0.503431 3.12066,0.285217 6.229,0.705262 9.31343,1.25857"
       id="path3-5"
       inkscape:path-effect="#path-effect3-1"
       inkscape:original-d="m 153.04238,41.281167 c 1.88405,1.504744 21.27644,-0.962713 25.67487,0.503428 1.46807,0.489357 6.21898,1.295514 7.80315,0.503431 2.1853,-1.092656 6.74788,1.25857 9.31343,1.25857"
       transform="translate(2.2980959,-23.852053)"
       sodipodi:nodetypes="cssc" />
    <text
       xml:space="preserve"
       style="font-size:7.26107px;writing-mode:lr-tb;direction:ltr;fill:#000000;fill-opacity:1;stroke:#000000;stroke-width:0.0605086;stroke-dasharray:none;stroke-dashoffset:0"
       x="12.795351"
       y="66.373779"
       id="text4"
       transform="scale(0.9456027,1.0575266)"><tspan
         sodipodi:role="line"
         id="tspan4"
         style="stroke-width:0.0605086"
         x="12.795351"
         y="66.373779">Total Loss</tspan></text>
    <text
       xml:space="preserve"
       style="font-size:7.26107px;writing-mode:lr-tb;direction:ltr;fill:#000000;fill-opacity:1;stroke:#000000;stroke-width:0.0605086;stroke-dasharray:none;stroke-dashoffset:0"
       x="162.29536"
       y="66.674118"
       id="text4-4"
       transform="scale(0.9456027,1.0575266)"><tspan
         sodipodi:role="line"
         id="tspan4-8"
         style="stroke-width:0.0605086"
         x="162.29536"
         y="66.674118">Residual Loss</tspan></text>
    <text
       xml:space="preserve"
       style="font-size:7.26107px;writing-mode:lr-tb;direction:ltr;fill:#000000;fill-opacity:1;stroke:#000000;stroke-width:0.0605086;stroke-dasharray:none;stroke-dashoffset:0"
       x="92.280426"
       y="66.503754"
       id="text4-4-9"
       transform="scale(0.9456027,1.0575266)"><tspan
         sodipodi:role="line"
         id="tspan4-8-2"
         style="stroke-width:0.0605086"
         x="92.280426"
         y="66.503754">Top-k Loss</tspan></text>
    <path
       style="fill:none;fill-opacity:1;stroke:#447821;stroke-width:0.766448;stroke-dasharray:4.59869, 0.766448;stroke-dashoffset:0;stroke-opacity:1"
       d="M 92.928246,56.850221 V 131.46614"
       id="path39"
       inkscape:path-effect="#path-effect39"
       inkscape:original-d="M 92.928246,56.850221 V 131.46614"
       transform="matrix(1,0,0,0.4298572,-62.255543,-6.2316725)" />
    <text
       xml:space="preserve"
       style="font-size:14.1116px;writing-mode:lr-tb;direction:ltr;white-space:pre;inline-size:25.8466;display:inline;fill:none;fill-opacity:1;stroke:#000000;stroke-width:1.22065;stroke-dasharray:none;stroke-dashoffset:0"
       x="19.124369"
       y="179.69846"
       id="text6"
       transform="matrix(1.5136089,0,0,1.5365551,2.3270361,-150.80111)" />
  </g>
</svg>
